<mxfile host="Electron" modified="2023-11-02T09:37:51.846Z" agent="Mozilla/5.0 (Windows NT 10.0; Win64; x64) AppleWebKit/537.36 (KHTML, like Gecko) draw.io/21.5.0 Chrome/112.0.5615.204 Electron/24.5.1 Safari/537.36" etag="Ush0CC9xb2kq-H3LjGs9" version="21.5.0" type="device">
  <diagram name="Page-1" id="TQ_ngeW4AgPF9NegTRMG">
    <mxGraphModel dx="1104" dy="556" grid="1" gridSize="10" guides="1" tooltips="1" connect="1" arrows="1" fold="1" page="1" pageScale="1" pageWidth="850" pageHeight="1100" math="0" shadow="0">
      <root>
        <mxCell id="0" />
        <mxCell id="1" parent="0" />
        <mxCell id="Ls-XqrWe2LEbpxDeCuZV-3" value="" style="edgeStyle=orthogonalEdgeStyle;rounded=0;orthogonalLoop=1;jettySize=auto;html=1;" parent="1" source="Ls-XqrWe2LEbpxDeCuZV-1" target="Ls-XqrWe2LEbpxDeCuZV-2" edge="1">
          <mxGeometry relative="1" as="geometry" />
        </mxCell>
        <mxCell id="Ls-XqrWe2LEbpxDeCuZV-1" value="App" style="rounded=0;whiteSpace=wrap;html=1;" parent="1" vertex="1">
          <mxGeometry x="365" y="10" width="120" height="60" as="geometry" />
        </mxCell>
        <mxCell id="Ls-XqrWe2LEbpxDeCuZV-5" value="" style="edgeStyle=orthogonalEdgeStyle;rounded=0;orthogonalLoop=1;jettySize=auto;html=1;" parent="1" source="Ls-XqrWe2LEbpxDeCuZV-2" target="Ls-XqrWe2LEbpxDeCuZV-4" edge="1">
          <mxGeometry relative="1" as="geometry" />
        </mxCell>
        <mxCell id="Ls-XqrWe2LEbpxDeCuZV-8" value="" style="edgeStyle=orthogonalEdgeStyle;rounded=0;orthogonalLoop=1;jettySize=auto;html=1;" parent="1" source="Ls-XqrWe2LEbpxDeCuZV-2" target="Ls-XqrWe2LEbpxDeCuZV-7" edge="1">
          <mxGeometry relative="1" as="geometry">
            <Array as="points">
              <mxPoint x="675" y="445" />
              <mxPoint x="650" y="445" />
            </Array>
          </mxGeometry>
        </mxCell>
        <mxCell id="HRDv2Sus34W72sFkdZHE-2" value="" style="edgeStyle=orthogonalEdgeStyle;rounded=0;orthogonalLoop=1;jettySize=auto;html=1;" parent="1" source="Ls-XqrWe2LEbpxDeCuZV-11" target="HRDv2Sus34W72sFkdZHE-1" edge="1">
          <mxGeometry relative="1" as="geometry" />
        </mxCell>
        <mxCell id="HRDv2Sus34W72sFkdZHE-9" value="" style="edgeStyle=orthogonalEdgeStyle;rounded=0;orthogonalLoop=1;jettySize=auto;html=1;" parent="1" source="HRDv2Sus34W72sFkdZHE-19" target="HRDv2Sus34W72sFkdZHE-8" edge="1">
          <mxGeometry relative="1" as="geometry" />
        </mxCell>
        <mxCell id="Ls-XqrWe2LEbpxDeCuZV-2" value="HomePage&lt;br&gt;&lt;br&gt;Implement Router" style="whiteSpace=wrap;html=1;rounded=0;" parent="1" vertex="1">
          <mxGeometry x="550" y="140" width="250" height="180" as="geometry" />
        </mxCell>
        <mxCell id="Ls-XqrWe2LEbpxDeCuZV-4" value="RecipeList&lt;br&gt;&lt;br&gt;Renders the List from MainStore&lt;br&gt;" style="whiteSpace=wrap;html=1;rounded=0;" parent="1" vertex="1">
          <mxGeometry x="100" y="570" width="180" height="130" as="geometry" />
        </mxCell>
        <mxCell id="Ls-XqrWe2LEbpxDeCuZV-9" value="" style="edgeStyle=orthogonalEdgeStyle;rounded=0;orthogonalLoop=1;jettySize=auto;html=1;" parent="1" source="Ls-XqrWe2LEbpxDeCuZV-7" target="Ls-XqrWe2LEbpxDeCuZV-4" edge="1">
          <mxGeometry relative="1" as="geometry" />
        </mxCell>
        <mxCell id="HRDv2Sus34W72sFkdZHE-7" value="" style="edgeStyle=orthogonalEdgeStyle;rounded=0;orthogonalLoop=1;jettySize=auto;html=1;" parent="1" source="Ls-XqrWe2LEbpxDeCuZV-7" target="HRDv2Sus34W72sFkdZHE-6" edge="1">
          <mxGeometry relative="1" as="geometry" />
        </mxCell>
        <mxCell id="HRDv2Sus34W72sFkdZHE-11" value="" style="edgeStyle=orthogonalEdgeStyle;rounded=0;orthogonalLoop=1;jettySize=auto;html=1;entryX=0;entryY=0.5;entryDx=0;entryDy=0;" parent="1" source="Ls-XqrWe2LEbpxDeCuZV-7" target="HRDv2Sus34W72sFkdZHE-3" edge="1">
          <mxGeometry relative="1" as="geometry">
            <mxPoint x="905" y="635" as="targetPoint" />
          </mxGeometry>
        </mxCell>
        <mxCell id="HRDv2Sus34W72sFkdZHE-23" value="" style="edgeStyle=orthogonalEdgeStyle;rounded=0;orthogonalLoop=1;jettySize=auto;html=1;entryX=0;entryY=0.5;entryDx=0;entryDy=0;" parent="1" source="Ls-XqrWe2LEbpxDeCuZV-7" target="HRDv2Sus34W72sFkdZHE-19" edge="1">
          <mxGeometry relative="1" as="geometry">
            <mxPoint x="695" y="455" as="targetPoint" />
            <Array as="points">
              <mxPoint x="770" y="480" />
            </Array>
          </mxGeometry>
        </mxCell>
        <mxCell id="Ls-XqrWe2LEbpxDeCuZV-7" value="Add New Recipe&lt;br&gt;&lt;br&gt;Render New Recipe to list" style="whiteSpace=wrap;html=1;rounded=0;" parent="1" vertex="1">
          <mxGeometry x="600" y="570" width="190" height="130" as="geometry" />
        </mxCell>
        <mxCell id="HRDv2Sus34W72sFkdZHE-4" value="" style="edgeStyle=orthogonalEdgeStyle;rounded=0;orthogonalLoop=1;jettySize=auto;html=1;" parent="1" source="HRDv2Sus34W72sFkdZHE-1" target="HRDv2Sus34W72sFkdZHE-3" edge="1">
          <mxGeometry relative="1" as="geometry" />
        </mxCell>
        <mxCell id="HRDv2Sus34W72sFkdZHE-13" value="" style="edgeStyle=orthogonalEdgeStyle;rounded=0;orthogonalLoop=1;jettySize=auto;html=1;" parent="1" source="HRDv2Sus34W72sFkdZHE-1" target="HRDv2Sus34W72sFkdZHE-12" edge="1">
          <mxGeometry relative="1" as="geometry" />
        </mxCell>
        <mxCell id="HRDv2Sus34W72sFkdZHE-1" value="Favorite Filter" style="whiteSpace=wrap;html=1;rounded=0;" parent="1" vertex="1">
          <mxGeometry x="1030" y="620" width="120" height="60" as="geometry" />
        </mxCell>
        <mxCell id="HRDv2Sus34W72sFkdZHE-3" value="Save Favorites to Database Dynamically" style="whiteSpace=wrap;html=1;rounded=0;" parent="1" vertex="1">
          <mxGeometry x="1030" y="800" width="120" height="60" as="geometry" />
        </mxCell>
        <mxCell id="HRDv2Sus34W72sFkdZHE-25" value="" style="edgeStyle=orthogonalEdgeStyle;rounded=0;orthogonalLoop=1;jettySize=auto;html=1;" parent="1" source="HRDv2Sus34W72sFkdZHE-6" target="HRDv2Sus34W72sFkdZHE-24" edge="1">
          <mxGeometry relative="1" as="geometry" />
        </mxCell>
        <mxCell id="HRDv2Sus34W72sFkdZHE-6" value="Add Recipe Page&lt;br&gt;&lt;br&gt;V-modal&lt;br&gt;input&lt;br&gt;placeholders" style="whiteSpace=wrap;html=1;rounded=0;" parent="1" vertex="1">
          <mxGeometry x="560" y="815" width="260" height="135" as="geometry" />
        </mxCell>
        <mxCell id="HRDv2Sus34W72sFkdZHE-8" value="Search by tags" style="whiteSpace=wrap;html=1;rounded=0;" parent="1" vertex="1">
          <mxGeometry x="820" y="550" width="120" height="60" as="geometry" />
        </mxCell>
        <mxCell id="HRDv2Sus34W72sFkdZHE-12" value="Favorites" style="whiteSpace=wrap;html=1;rounded=0;" parent="1" vertex="1">
          <mxGeometry x="1030" y="340" width="120" height="60" as="geometry" />
        </mxCell>
        <mxCell id="HRDv2Sus34W72sFkdZHE-14" value="" style="edgeStyle=orthogonalEdgeStyle;rounded=0;orthogonalLoop=1;jettySize=auto;html=1;" parent="1" source="Ls-XqrWe2LEbpxDeCuZV-2" target="Ls-XqrWe2LEbpxDeCuZV-11" edge="1">
          <mxGeometry relative="1" as="geometry">
            <mxPoint x="800" y="230" as="sourcePoint" />
            <mxPoint x="1090" y="620" as="targetPoint" />
          </mxGeometry>
        </mxCell>
        <mxCell id="HRDv2Sus34W72sFkdZHE-16" value="" style="edgeStyle=orthogonalEdgeStyle;rounded=0;orthogonalLoop=1;jettySize=auto;html=1;" parent="1" source="Ls-XqrWe2LEbpxDeCuZV-11" target="HRDv2Sus34W72sFkdZHE-15" edge="1">
          <mxGeometry relative="1" as="geometry" />
        </mxCell>
        <mxCell id="Ls-XqrWe2LEbpxDeCuZV-11" value="MainStore&lt;br&gt;PlaceHolder, default list&lt;br&gt;Push new recipes&lt;br&gt;Store image in objects" style="rounded=0;whiteSpace=wrap;html=1;" parent="1" vertex="1">
          <mxGeometry x="985" y="175" width="210" height="110" as="geometry" />
        </mxCell>
        <mxCell id="HRDv2Sus34W72sFkdZHE-17" value="" style="edgeStyle=orthogonalEdgeStyle;rounded=0;orthogonalLoop=1;jettySize=auto;html=1;" parent="1" source="Ls-XqrWe2LEbpxDeCuZV-2" target="HRDv2Sus34W72sFkdZHE-15" edge="1">
          <mxGeometry relative="1" as="geometry">
            <mxPoint x="800" y="230" as="sourcePoint" />
            <mxPoint x="1360" y="620" as="targetPoint" />
          </mxGeometry>
        </mxCell>
        <mxCell id="HRDv2Sus34W72sFkdZHE-18" value="" style="edgeStyle=orthogonalEdgeStyle;rounded=0;orthogonalLoop=1;jettySize=auto;html=1;" parent="1" source="HRDv2Sus34W72sFkdZHE-15" target="HRDv2Sus34W72sFkdZHE-12" edge="1">
          <mxGeometry relative="1" as="geometry" />
        </mxCell>
        <mxCell id="HRDv2Sus34W72sFkdZHE-20" value="" style="edgeStyle=orthogonalEdgeStyle;rounded=0;orthogonalLoop=1;jettySize=auto;html=1;" parent="1" source="HRDv2Sus34W72sFkdZHE-15" target="HRDv2Sus34W72sFkdZHE-19" edge="1">
          <mxGeometry relative="1" as="geometry" />
        </mxCell>
        <mxCell id="HRDv2Sus34W72sFkdZHE-15" value="Tags" style="whiteSpace=wrap;html=1;rounded=0;" parent="1" vertex="1">
          <mxGeometry x="820" y="360" width="120" height="60" as="geometry" />
        </mxCell>
        <mxCell id="HRDv2Sus34W72sFkdZHE-21" value="" style="edgeStyle=orthogonalEdgeStyle;rounded=0;orthogonalLoop=1;jettySize=auto;html=1;" parent="1" source="HRDv2Sus34W72sFkdZHE-15" target="HRDv2Sus34W72sFkdZHE-19" edge="1">
          <mxGeometry relative="1" as="geometry">
            <mxPoint x="880" y="420" as="sourcePoint" />
            <mxPoint x="880" y="510" as="targetPoint" />
          </mxGeometry>
        </mxCell>
        <mxCell id="HRDv2Sus34W72sFkdZHE-19" value="Add Tags" style="whiteSpace=wrap;html=1;rounded=0;" parent="1" vertex="1">
          <mxGeometry x="820" y="450" width="120" height="60" as="geometry" />
        </mxCell>
        <mxCell id="HRDv2Sus34W72sFkdZHE-24" value="Upload Image" style="whiteSpace=wrap;html=1;rounded=0;" parent="1" vertex="1">
          <mxGeometry x="630" y="1067.5" width="120" height="60" as="geometry" />
        </mxCell>
      </root>
    </mxGraphModel>
  </diagram>
</mxfile>
